<svg xmlns="http://www.w3.org/2000/svg" viewBox="0 0 100 100"><defs><linearGradient id="bg-gradient" x1="0%" y1="0%" x2="100%" y2="100%"><stop offset="0%" style="stop-color:#667eea;stop-opacity:1"/><stop offset="100%" style="stop-color:#764ba2;stop-opacity:1"/></linearGradient><linearGradient id="plane-gradient" x1="0%" y1="0%" x2="100%" y2="100%"><stop offset="0%" style="stop-color:#f6d365;stop-opacity:1"/><stop offset="100%" style="stop-color:#fda085;stop-opacity:1"/></linearGradient><linearGradient id="trail-gradient" x1="0%" y1="0%" x2="100%" y2="0%"><stop offset="0%" style="stop-color:#a8edea;stop-opacity:0"/><stop offset="50%" style="stop-color:#fed6e3;stop-opacity:0.8"/><stop offset="100%" style="stop-color:#ffffff;stop-opacity:0.3"/></linearGradient></defs><circle cx="50" cy="50" r="48" fill="url(#bg-gradient)"/><path d="M 20 60 Q 30 40, 45 35 Q 55 30, 70 28" stroke="url(#trail-gradient)" stroke-width="4" fill="none" stroke-linecap="round" opacity="0.6"/><path d="M 15 70 Q 22 55, 35 48 Q 45 42, 60 38" stroke="url(#trail-gradient)" stroke-width="3" fill="none" stroke-linecap="round" opacity="0.4"/><g transform="translate(70, 28) rotate(-25)"><path fill="url(#plane-gradient)" d="M 0 0 L 8 -3 L 10 -2 L 3 0 L 10 2 L 8 3 Z"/><path fill="url(#plane-gradient)" d="M 0 -1 L -8 -4 L -6 -1.5 L -8 0 L -6 1.5 L -8 4 L 0 1 Z" opacity="0.9"/><circle cx="0" cy="0" r="2.5" fill="#fff" opacity="0.8"/></g><circle cx="30" cy="45" r="2" fill="#fed6e3" opacity="0.7"/><circle cx="40" cy="40" r="1.5" fill="#a8edea" opacity="0.6"/><circle cx="55" cy="32" r="2.5" fill="#fda085" opacity="0.5"/></svg>
