<svg xmlns="http://www.w3.org/2000/svg" viewBox="0 0 25 25"><defs><style>.cls-1{fill:#231f20}</style></defs><g id="tape_2" data-name="tape 2"><path class="cls-1" d="M1.49 10.64A.5.5 0 0 0 2 10.2a7 7 0 1 1 12.61 4.93.51.51 0 0 0 .11.7.54.54 0 0 0 .3.1.52.52 0 0 0 .4-.21A7.93 7.93 0 0 0 17 11v-.66a7.57 7.57 0 0 0 1.14 1 .52.52 0 0 0 .29.09.5.5 0 0 0 .41-.22.5.5 0 0 0-.13-.69A7.57 7.57 0 0 1 16 7.18v-.06a8 8 0 0 0-14.94 3 .5.5 0 0 0 .43.52z"/><path class="cls-1" d="M10.87 13.35a.49.49 0 0 0-.08.7.49.49 0 0 0 .7.08 4 4 0 1 0-6.38-4.05.5.5 0 0 0 1 .23 3 3 0 1 1 4.79 3z"/><path class="cls-1" d="M23.5 11h-4.07a.5.5 0 0 0-.5.46c-.17 2.16-1.2 4-2.63 4.58-1.84.8-4.89-.15-6.62-3a4 4 0 0 0-3.43-2H1.5a.5.5 0 0 0-.5.5v11a.5.5 0 0 0 .5.5h22a.5.5 0 0 0 .5-.5v-11a.5.5 0 0 0-.5-.54zM23 22H2V12h4.25a3 3 0 0 1 2.57 1.5c2 3.42 5.6 4.45 7.88 3.46a6 6 0 0 0 3.18-5H23z"/></g></svg>
